<?xml version="1.0" encoding="iso-8859-1"?>
<!-- Generator: Adobe Illustrator 19.0.0, SVG Export Plug-In . SVG Version: 6.00 Build 0)  -->
<svg xmlns="http://www.w3.org/2000/svg" xmlns:xlink="http://www.w3.org/1999/xlink" version="1.1" id="Capa_1" x="0px" y="0px" viewBox="0 0 512 512" style="enable-background:new 0 0 512 512;" xml:space="preserve" width="512px" height="512px">
<g>
	<g>
		<g>
			<path d="M239.787,88.607h244.328c4.142,0,7.5-3.358,7.5-7.5c0-22.565-18.359-40.924-40.925-40.924     c-4.141,0-8.254,0.632-12.184,1.857c-9.234-18.648-28.265-30.705-49.572-30.705c-14.991,0-28.988,5.908-39.339,16.415     c-8.207-4.648-17.425-7.078-27.02-7.078c-16.566,0-32.098,7.42-42.504,20.084c-2.257-0.381-4.551-0.574-6.859-0.574     c-22.566,0-40.925,18.359-40.925,40.925C232.287,85.249,235.645,88.607,239.787,88.607z M273.212,55.182     c2.628,0,5.22,0.391,7.702,1.161c3.163,0.982,6.595-0.226,8.445-2.974c7.462-11.082,19.88-17.698,33.217-17.698     c8.692,0,16.957,2.739,23.902,7.921c3.289,2.455,7.938,1.81,10.435-1.444c7.713-10.05,19.385-15.814,32.022-15.814     c17.54,0,32.961,11.204,38.376,27.879c0.693,2.134,2.304,3.845,4.392,4.665s4.433,0.661,6.393-0.43     c3.833-2.137,8.189-3.266,12.595-3.266c11.688,0,21.594,7.775,24.819,18.425H248.393     C251.618,62.958,261.524,55.182,273.212,55.182z" fill="#555555"/>
			<path d="M502.326,202.658l-26.014,7.879c0,0-24.378-80.24-24.485-80.592c-2.114-6.96-12.245-6.941-14.353-0.001l-16.276,53.575     c0,0-21.809-71.786-21.864-71.966c-2.106-6.933-12.247-6.93-14.353,0l-30.656,100.903c0,0-9.48-31.203-9.522-31.341     c-2.109-6.942-12.247-6.93-14.353,0l-8.308,27.344c-14.238-7.612-29.081-14.893-44.23-21.827c0,0-24.46-80.511-24.532-80.747     c-2.032-6.69-12.189-7.123-14.353-0.001l-12.802,42.138c0,0-23.227-76.453-23.311-76.729c-2.111-6.947-12.243-6.946-14.353-0.001     l-12.545,41.292c0,0-26.066-85.796-26.111-85.944c-2.109-6.943-12.244-6.942-14.353,0l-23.744,78.153     c0,0-27.212-89.568-27.338-89.984c-2.106-6.932-12.249-6.928-14.353-0.001l-27.363,90.065     c-20.56-5.463-33.092-8.375-33.576-8.486C4.548,95.321,0,98.949,0,103.696v391.193c0,4.142,3.358,7.5,7.5,7.5h497     c4.142,0,7.5-3.358,7.5-7.5c0,0,0-284.827,0-285.053C512,204.847,507.098,201.214,502.326,202.658z M444.651,157.924     l17.312,56.981c-0.215,0.069-0.427,0.144-0.642,0.214c-2.315,0.751-4.615,1.553-6.895,2.407     c-6.901,2.584-13.638,5.602-20.139,9.074l-5.25-17.281L444.651,157.924z M392.158,139.532l21.864,71.967l6.99,23.007     c-4.549,3.006-8.964,6.242-13.236,9.708c-4.377,3.552-16.011,12.984-17.479,14.114c-5.813,4.475-11.954,8.531-18.353,12.117     l-9.78-32.19L392.158,139.532z M337.628,209.093l35.594,117.159h-71.188L337.628,209.093z M246.205,133.864l13.563,44.643     c-7.808-3.391-15.845-6.77-24.054-10.111L246.205,133.864z M195.739,99.273l18.43,60.662c-7.593-2.923-15.16-5.757-22.665-8.497     c-1.583-0.589-2.995-1.113-4.151-1.543l-3.497-11.51L195.739,99.273z M142.73,54.62l26.111,85.943c0,0.001,0,0.001,0,0.001     l0.923,3.039c-15.918-5.541-32.37-10.979-49.135-16.239L142.73,54.62z M77.295,42.788l23.877,78.593     c-14.628-4.409-29.329-8.64-43.916-12.639L77.295,42.788z M15,487.389V299.576c0,0,57.638,25.101,57.642,25.102     c0,0,27.715,12.069,27.716,12.07c17.24,7.508,31.429,19.636,43.89,33.836c15.26,17.391,34.441,27.939,55.575,37.085     c13.781,5.963,26.949,15.126,37.406,26.296l50.013,53.424H15z M497,487.388H307.788l-59.61-63.675     c-13.24-14.143-29.819-25.232-47.946-32.068c-17.124-6.458-32.639-17.201-44.711-30.956     c-13.952-15.901-29.604-29.172-49.174-37.695l-13.014-5.667c0.145-0.07,0.295-0.142,0.442-0.212     c23.907-11.479,48.43-21.651,73.295-30.86c17.193-6.364,34.564-12.252,52.095-17.614c3.961-1.211,6.19-5.405,4.978-9.366     c-1.191-3.893-5.474-6.17-9.366-4.978c-43.322,13.251-85.803,29.43-126.712,48.915c-4.238,2.019-8.419,4.142-12.617,6.241     c-0.029,0.015-0.062,0.032-0.091,0.047L15,283.215V113.222c24.214,5.984,93.09,23.875,168.714,51.322     c45.735,16.996,91.003,35.317,133.983,58.55l-1.975,6.5c-6.64,1.211-13.263,2.516-19.873,3.884     c-16.15,3.35-32.216,7.128-48.147,11.4c-4.002,1.066-6.383,5.175-5.317,9.178c1.066,4.002,5.174,6.38,9.178,5.317     c17.503-4.647,35.143-8.791,52.9-12.35c2.111-0.423,4.225-0.83,6.34-1.236l-16.667,54.859c-0.279,0.148-0.552,0.307-0.829,0.456     c-22.33,12.019-41.906,29.229-56.646,49.867c-3.482,4.875,0.134,11.859,6.103,11.859H497V487.388z M497,347.83H258.276     c0.966-1.099,1.954-2.18,2.951-3.251c7.759-8.331,16.446-15.685,25.812-22.144c0.201-0.137,0.4-0.277,0.602-0.412     c0,0-2.899,9.542-2.901,9.55c-1.441,4.743,2.233,9.68,7.177,9.68c0,0,91.315,0,91.442,0c5.136,0,8.846-5.435,6.995-10.21     l-13.955-45.933c21.179-11.336,37.576-28.977,58.024-41.314c11.884-7.17,24.824-12.417,38.083-16.433L497,219.944V347.83z" fill="#555555"/>
		</g>
	</g>
</g>
<g>
</g>
<g>
</g>
<g>
</g>
<g>
</g>
<g>
</g>
<g>
</g>
<g>
</g>
<g>
</g>
<g>
</g>
<g>
</g>
<g>
</g>
<g>
</g>
<g>
</g>
<g>
</g>
<g>
</g>
</svg>
