<?xml version="1.0" encoding="iso-8859-1"?>
<svg version="1.1" id="Layer_1" xmlns="http://www.w3.org/2000/svg" xmlns:xlink="http://www.w3.org/1999/xlink" x="0px" y="0px" width="44px"
	 viewBox="0 0 501.968 501.968" style="enable-background:new 0 0 501.968 501.968;" xml:space="preserve" fill="#555555">
			<path class="svgpath1" d="M477.643,170.776c-1.899-2.309-4.732-3.646-7.722-3.646h-69.083L318.387,5.46c-2.509-4.92-8.531-6.876-13.451-4.365
				c-4.92,2.509-6.875,8.531-4.365,13.451l77.818,152.585H32.046c-2.989,0-5.822,1.337-7.722,3.646
				c-1.9,2.309-2.667,5.345-2.092,8.278L72.371,434.76c0.92,4.692,5.032,8.076,9.813,8.076H314.77
				c2.235,10.575,6.776,20.749,13.623,29.722l-12.311,12.311c-3.905,3.905-3.905,10.237,0,14.143
				c1.953,1.952,4.512,2.929,7.071,2.929s5.118-0.977,7.071-2.929l12.312-12.311c13.322,10.165,29.297,15.267,45.281,15.267
				c19.136,0,38.271-7.284,52.84-21.852c27.139-27.139,34.312-119.595,35.04-130.048c0.201-2.887-0.858-5.72-2.904-7.767
				c-2.047-2.046-4.882-3.105-7.767-2.904c-2.281,0.159-8.47,0.625-17.033,1.539l31.742-161.881
				C480.31,176.121,479.542,173.085,477.643,170.776z M454.737,360.355c-3.166,31.726-11.967,89.363-28.223,105.618
				c-18.922,18.922-48.359,21.05-69.664,6.412l25.09-25.09c3.905-3.905,3.905-10.237,0-14.143c-3.906-3.904-10.236-3.904-14.143,0
				l-25.09,25.09c-14.638-21.305-12.51-50.742,6.412-69.664C365.374,372.322,423.012,363.522,454.737,360.355z M427.099,343.554
				c-32.098,4.634-75.042,13.803-92.122,30.883c-13.44,13.44-20.665,30.77-21.705,48.399H90.414l-34.512-176.01h359.413
				c5.522,0,10-4.478,10-10c0-5.522-4.478-10-10-10H51.981l-7.783-39.695H457.77L427.099,343.554z"/>
			<path class="svgpath1" d="M141.353,110.27c1.455,0.742,3.006,1.094,4.535,1.094c3.64,0,7.149-1.994,8.916-5.459l46.593-91.359
				c2.51-4.92,0.555-10.942-4.365-13.451c-4.917-2.508-10.942-0.556-13.451,4.365l-46.593,91.359
				C134.478,101.739,136.433,107.761,141.353,110.27z"/>
			<path class="svgpath1" d="M117.788,156.475c1.455,0.742,3.006,1.094,4.535,1.094c3.64,0,7.149-1.994,8.916-5.459l8.033-15.752
				c2.51-4.92,0.555-10.942-4.365-13.451c-4.918-2.509-10.942-0.556-13.451,4.365l-8.033,15.752
				C110.913,147.944,112.868,153.966,117.788,156.475z"/>
			<path class="svgpath1" d="M397.967,426.993c2.559,0,5.118-0.977,7.07-2.929l5.788-5.787c3.905-3.904,3.906-10.236,0.001-14.142
				c-3.903-3.905-10.236-3.906-14.142-0.001l-5.788,5.787c-3.905,3.904-3.906,10.236-0.001,14.142
				C392.848,426.016,395.408,426.993,397.967,426.993z"/>
</svg>
