<?xml version="1.0" encoding="iso-8859-1"?>
<!-- Generator: Adobe Illustrator 19.0.0, SVG Export Plug-In . SVG Version: 6.00 Build 0)  -->
<svg xmlns="http://www.w3.org/2000/svg" xmlns:xlink="http://www.w3.org/1999/xlink" version="1.1" id="Capa_1" x="0px" y="0px" viewBox="0 0 512 512" style="enable-background:new 0 0 512 512;" xml:space="preserve" width="512px" height="512px">
<g>
	<g>
		<path d="M390.008,214.017h-232c-19.752,0-36.353,13.709-40.813,32.11h-10.902V20c0-11.028-8.972-20-20-20H20C8.972,0,0,8.972,0,20    v236.127c0,0.227,0.019,0.449,0.034,0.673c0.007,0.102,0.005,0.203,0.015,0.305c0.036,0.365,0.09,0.725,0.164,1.078    c0,0,0,0.001,0,0.002l20.393,96.986C25.513,378.502,28,402.42,28,426.262V502c0,5.522,4.477,10,10,10h300.435    c5.523,0,10-4.478,10-10V395.354c49.696-26.652,83.573-79.11,83.573-139.337C432.008,232.857,413.167,214.017,390.008,214.017z     M158.008,234.017h232c8.532,0,15.946,4.882,19.593,12H138.415C142.062,238.898,149.476,234.017,158.008,234.017z M20,246.127V20    h66.293v226.127H20z M274.008,394.017c-5.523,0-10,4.478-10,10c0,5.522,4.477,10,10,10c19.117,0,37.451-3.415,54.427-9.663V492H48    v-65.738c0-25.222-2.631-50.524-7.821-75.206L29.444,300h219.732c5.523,0,10-4.478,10-10c0-5.522-4.477-10-10-10H28.193    c-0.997,0-1.958,0.15-2.866,0.422l-3.006-14.295l389.329-0.11C406.509,337.46,346.739,394.017,274.008,394.017z" fill="#555555"/>
	</g>
</g>
<g>
	<g>
		<path d="M281.834,280h-0.13c-5.523,0-10,4.478-10,10c0,5.522,4.477,10,10,10h0.13c5.523,0,10-4.478,10-10    C291.834,284.478,287.357,280,281.834,280z" fill="#555555"/>
	</g>
</g>
<g>
	<g>
		<path d="M502,0c-5.523,0-10,4.478-10,10v62h-3c-0.309,0-0.614,0.019-0.917,0.046V60.333c0-16.542-13.458-30-30-30h-76.042    c-16.542,0-30,13.458-30,30V72H348V54.417c0-5.522-4.477-10-10-10s-10,4.478-10,10V82c0,5.522,4.477,10,10,10h14.042v79    c0,5.522,4.477,10,10,10h116.042c5.523,0,10-4.478,10-10V91.954C488.386,91.981,488.691,92,489,92h13c5.523,0,10-4.478,10-10V10    C512,4.478,507.523,0,502,0z M468.084,161h-96.042v-19.657c3.13,1.11,6.494,1.72,10,1.72h76.042c3.506,0,6.87-0.61,10-1.72V161z     M468.084,95.667v17.396c0,5.514-4.486,10-10,10h-76.042c-5.514,0-10-4.486-10-10V95.667V60.333c0-5.514,4.486-10,10-10h76.042    c5.514,0,10,4.486,10,10V95.667z" fill="#555555"/>
	</g>
</g>
<g>
</g>
<g>
</g>
<g>
</g>
<g>
</g>
<g>
</g>
<g>
</g>
<g>
</g>
<g>
</g>
<g>
</g>
<g>
</g>
<g>
</g>
<g>
</g>
<g>
</g>
<g>
</g>
<g>
</g>
</svg>
