<?xml version="1.0" encoding="iso-8859-1"?>
<!-- Generator: Adobe Illustrator 19.0.0, SVG Export Plug-In . SVG Version: 6.00 Build 0)  -->
<svg xmlns="http://www.w3.org/2000/svg" xmlns:xlink="http://www.w3.org/1999/xlink" version="1.1" id="Capa_1" x="0px" y="0px" viewBox="0 0 511.998 511.998" style="enable-background:new 0 0 511.998 511.998;" xml:space="preserve" width="512px" height="512px">
<g>
	<g>
		<path d="M492.484,470.026c-0.474-16.838-11.894-30.681-26.875-35.38v-6.07l11.243-7.125c3.498-2.217,4.538-6.85,2.32-10.349    c-2.217-3.498-6.851-4.537-10.349-2.32l-3.215,2.037v-7.688c10.198-1.556,19.716-6.273,27.23-13.608    c20.025-19.545,20.13-51.87-0.247-71.418c6.513-13.569,4.58-30.153-5.877-41.921c6.43-20.109-9.393-40.432-30.513-39.104    c-18.78,1.168-32.807,20.131-26.686,39.148c-10.339,11.647-12.496,28.154-5.893,41.878c-29.754,28.6-13.501,78.98,26.984,85.044    v29.965c-2.644,0.256-5.249,0.778-7.791,1.582c-9.292-14.253-24.767-23.153-41.509-24.257c0-4.318,0-113.622,0-168.484    c0-8.767-5.469-16.532-13.499-19.591V74.135c0-17.98,14.627-32.605,32.606-32.605s32.606,14.627,32.606,32.605v6.797    c-4.533,0.224-7.734-0.696-11.69,1.423c-16.553,8.864-27.584,25.266-29.509,43.871c-0.741,7.141,4.918,13.361,12.113,13.361    h15.435v11.795c0,12.013,10.159,21.11,20.488,20.984c11.021,0.57,21.51-8.74,21.51-20.984v-11.795h15.435    c7.206,0,12.851-6.232,12.113-13.358c-1.925-18.608-12.956-35.009-29.508-43.874c-3.941-2.11-7.18-1.208-11.391-1.423v-6.796    c0-30.75-28.965-53.68-59.078-46.198c-0.252-0.026-0.507-0.039-0.766-0.039c-11.23,0-20.367-9.136-20.367-20.366    c0-4.143-3.357-7.499-7.499-7.499s-7.499,3.357-7.499,7.499c0,11.23-9.136,20.366-20.366,20.366c-0.258,0-0.514,0.013-0.766,0.039    c-30.079-7.473-59.079,15.416-59.079,46.198v6.796c-4.194,0.214-7.46-0.682-11.39,1.423    c-16.553,8.864-27.584,25.266-29.509,43.874c-0.74,7.152,4.934,13.358,12.114,13.358h15.436v11.795    c0,12.401,10.721,21.597,21.507,20.984c0.429,0.005,0.824-0.027,1.182-0.066c0.639-0.051,1.243-0.125,1.886-0.238    c0.577-0.099,1.249-0.243,1.807-0.396c9.194-2.437,15.617-10.777,15.617-20.284v-11.795h15.435    c7.191,0,12.853-6.216,12.114-13.359c-1.926-18.607-12.957-35.008-29.512-43.875c-3.958-2.117-7.171-1.198-11.688-1.421v-6.796    c0-17.98,14.627-32.606,32.606-32.606s32.606,14.627,32.606,32.606v148.23c-7.88,3.028-13.499,10.656-13.499,19.591v31.119    c0,4.143,3.357,7.499,7.499,7.499s7.499-3.357,7.499-7.499v-31.119c0-3.931,3.725-6.729,7.339-5.838    c0.1,0.067,4.661,1.062,4.661,5.838v98.502h-11.993v-32.386c0-4.143-3.357-7.499-7.499-7.499c-4.143,0-7.499,3.357-7.499,7.499    c0,32.061,0,69.705,0,102.369c-16.728,1.105-32.193,9.992-41.518,24.253c-4.676-1.479-9.554-2.034-14.514-1.651    c-18.594,1.437-34.544,16.916-35.138,36.921h-8.399v-47.052c12.818-0.521,23.086-12.815,19.429-26.338    c-2.363-8.917-10.281-15.208-19.429-15.582v-15.094c11.068-6.722,13.499-21.565,5.201-31.436    c11.454-13.594,1.764-34.504-16.056-34.504H77.536c-4.142,0-7.499,3.357-7.499,7.499s3.358,7.499,7.499,7.499h171.351    c2.711,0,5.091,1.834,5.802,4.519l0.025,0.098c0.912,3.809-1.997,7.384-5.827,7.384H34.907c-3.806,0-6.747-3.552-5.824-7.394    c0.068-0.1,1.081-4.605,5.824-4.605h7.631c4.143,0,7.499-3.357,7.499-7.499s-3.357-7.499-7.499-7.499h-7.631    c-17.799,0-27.513,20.9-16.06,34.5c-8.669,10.303-5.586,26.11,6.691,32.265v14.233h-0.631c-11.621,0-20.999,9.47-20.999,20.999    c0,11.579,9.42,20.999,20.999,20.999h0.631v47.009h-4.5c-9.507,0-17.849,6.422-20.272,15.575    c-3.791,13.826,7.021,26.424,20.272,26.424h382.769c4.143,0,7.499-3.357,7.499-7.499c0-4.143-3.357-7.499-7.499-7.499H21.039    c-3.819,0-6.716-3.554-5.836-7.352c0.067-0.1,1.067-4.648,5.836-4.648c21.397,0,453.529,0,469.96,0    c2.91,0,5.396,2.104,5.898,4.967c0.627,3.763-2.236,7.034-5.898,7.034h-52.194c-4.143,0-7.499,3.357-7.499,7.499    s3.357,7.499,7.499,7.499h52.193c11.579,0,20.999-9.42,20.999-20.999C511.999,480.088,503.566,470.811,492.484,470.026z     M466.373,151.381c0,3.841-3.592,6.722-7.34,5.838c-0.1-0.067-4.661-1.06-4.661-5.838v-11.795h12.001V151.381z M472.978,95.931    c10.852,6.061,18.357,16.576,20.567,28.657c-13.228,0-48.731,0-66.349,0c2.211-12.081,9.714-22.596,20.568-28.657H472.978z     M306.251,151.381c0,2.711-1.834,5.091-4.502,5.798c-4.239,0.976-7.498-2.207-7.498-5.798v-11.795h12V151.381z M312.856,95.931    c10.853,6.062,18.358,16.575,20.568,28.657c-13.228,0-48.732,0-66.349,0c2.211-12.081,9.714-22.596,20.568-28.657H312.856z     M29.069,346.617c0.067-0.1,1.061-4.661,5.839-4.661h213.98c2.866,0,5.767,2.016,5.999,6.156    c-0.082,3.237-2.742,5.846-5.999,5.846h-23.643c-14.688,0-183.251,0-190.337,0C31.063,353.957,28.184,350.358,29.069,346.617z     M244.743,368.956v12h-12v-12H244.743z M217.745,368.956v12H67.537v-12H217.745z M52.538,368.956v12h-12v-12H52.538z     M52.538,469.964h-12v-47.009h12C52.538,433.078,52.538,459.271,52.538,469.964z M217.745,469.964L217.745,469.964H67.537v-20.01    h150.209V469.964z M217.745,434.955L217.745,434.955H67.537v-12h150.209V434.955z M244.743,469.964h-12    c0-10.666,0-36.917,0-47.009h12V469.964z M24.908,407.956c-3.279,0-6.062-2.673-5.987-6.13c0.122-3.472,2.9-5.872,5.987-5.872    c11.938,0,224.009,0,233.978,0c2.711,0,5.091,1.834,5.802,4.519c0.778,4.608-2.38,7.482-5.802,7.482    C95.496,407.956,117.293,407.956,24.908,407.956z M426.167,315.826L426.167,315.826c-0.003,0.003-0.006,0.006-0.009,0.008    C426.161,315.832,426.164,315.829,426.167,315.826z M435.801,327.322c4.031-3.377,5.029-9.35,2.322-13.892    c-5.219-8.761-4.214-20.215,3.3-27.985c3.316-3.431,4.352-8.557,2.637-13.061c-3.67-9.635,3.345-19.729,13.076-20.333    c10.969-0.682,18.843,10.132,15.057,20.252c-1.726,4.612-0.704,9.648,2.664,13.144c7.33,7.614,8.423,18.903,3.466,27.599    c-2.762,4.843-1.723,10.979,2.469,14.593c21.804,18.804,12.461,54.022-15.181,60.239V339.46c0-4.143-3.357-7.499-7.499-7.499    s-7.499,3.357-7.499,7.499v19.565l-2.583-1.842c-3.375-2.406-8.057-1.619-10.46,1.752c-2.405,3.373-1.62,8.056,1.752,10.46    l11.291,8.051v10.46C422.464,381.762,413.771,345.795,435.801,327.322z M380.311,48.539c-2.603-4.065-5.802-7.71-9.479-10.809    c3.648-2.229,6.855-5.106,9.478-8.461c2.623,3.356,5.832,6.232,9.479,8.461C386.113,40.829,382.914,44.475,380.311,48.539z     M374.311,355.456h12v36.255h-12V355.456z M374.311,406.71h12c0,7.182,0,29.122,0,36.255h-12    C374.311,435.832,374.311,413.892,374.311,406.71z M331.814,462.464v7.5h-48.668c0.742-15.091,15.724-25.643,30.289-20.916    c6.286,2.038,13.239-0.484,16.915-6.131c6.513-10.008,17.252-16.364,28.963-17.435v17.483c-0.12,0-8.14,0-7.999,0    C340.561,442.965,331.814,451.713,331.814,462.464z M413.808,469.964h-66.994v-7.5c0-2.439,2.06-4.5,4.5-4.5    c14.025,0,44.004,0,57.995,0c2.439,0,4.5,2.061,4.5,4.5V469.964z M428.807,469.965L428.807,469.965v-7.501    c0-10.751-8.747-19.498-19.499-19.498c-0.191,0-8.099,0-7.999,0v-17.484c11.706,1.072,22.45,7.428,28.964,17.438    c3.674,5.646,10.628,8.166,16.916,6.129c14.539-4.712,29.543,5.799,30.287,20.917H428.807z" fill="#555555"/>
	</g>
</g>
<g>
</g>
<g>
</g>
<g>
</g>
<g>
</g>
<g>
</g>
<g>
</g>
<g>
</g>
<g>
</g>
<g>
</g>
<g>
</g>
<g>
</g>
<g>
</g>
<g>
</g>
<g>
</g>
<g>
</g>
</svg>
