<?xml version="1.0" encoding="iso-8859-1"?>
<!-- Generator: Adobe Illustrator 19.0.0, SVG Export Plug-In . SVG Version: 6.00 Build 0)  -->
<svg xmlns="http://www.w3.org/2000/svg" xmlns:xlink="http://www.w3.org/1999/xlink" version="1.1" id="Capa_1" x="0px" y="0px" viewBox="0 0 204.8 204.8" style="enable-background:new 0 0 204.8 204.8;" xml:space="preserve" width="512px" height="512px">
<g>
	<g>
		<path d="M109.979,20.48H33.382c-10.878,0-19.729,8.851-19.729,19.729v161.178c0,1.884,1.529,3.413,3.413,3.413h109.227    c1.884,0,3.413-1.529,3.415-3.413V40.209C129.708,29.331,120.858,20.48,109.979,20.48z M122.88,197.973H20.48V40.209    c0-7.113,5.789-12.902,12.902-12.902h76.595c7.115,0,12.902,5.789,12.902,12.902V197.973z" fill="#555555"/>
	</g>
</g>
<g>
	<g>
		<path d="M110.496,121.277c-0.594-1.114-1.753-1.811-3.014-1.811H75.926L88.745,97.28c0.609-1.056,0.609-2.359,0-3.415    c-0.609-1.056-1.736-1.707-2.956-1.707H54.234c-1.509,0-2.838,0.99-3.27,2.435L37.69,138.967    c-0.309,1.034-0.111,2.152,0.532,3.017c0.643,0.865,1.659,1.376,2.737,1.376h27.609l-5.879,40.47    c-0.23,1.575,0.66,3.099,2.147,3.673c0.401,0.155,0.818,0.23,1.229,0.23c1.109,0,2.183-0.541,2.833-1.504l41.416-61.44    C111.019,123.742,111.089,122.392,110.496,121.277z M71.595,170.011l4.297-29.575c0.143-0.981-0.147-1.975-0.795-2.724    c-0.649-0.749-1.591-1.179-2.582-1.179h-26.97l11.232-37.547h23.098l-12.819,22.185c-0.609,1.056-0.609,2.359,0,3.415    c0.609,1.056,1.736,1.707,2.956,1.707h31.053L71.595,170.011z" fill="#555555"/>
	</g>
</g>
<g>
	<g>
		<path d="M71.68,30.72c-24.467,0-44.373,19.905-44.373,44.373c0,1.884,1.529,3.413,3.413,3.413h81.92    c1.884,0,3.413-1.529,3.413-3.413C116.053,50.625,96.147,30.72,71.68,30.72z M34.287,71.68    c1.731-19.11,17.838-34.133,37.391-34.133s35.664,15.024,37.393,34.133H34.287z" fill="#555555"/>
	</g>
</g>
<g>
	<g>
		<path d="M71.68,44.373c-1.884,0-3.413,1.529-3.413,3.413V81.92c0,1.884,1.529,3.413,3.413,3.413c1.884,0,3.413-1.529,3.413-3.413    V47.787C75.093,45.903,73.564,44.373,71.68,44.373z" fill="#555555"/>
	</g>
</g>
<g>
	<g>
		<path d="M94.573,41.96c-1.331-1.333-3.495-1.333-4.826,0l-6.827,6.827c-1.333,1.333-1.333,3.494,0,4.826    c0.666,0.667,1.539,1,2.413,1c0.874,0,1.748-0.333,2.413-1l6.827-6.827C95.906,45.454,95.906,43.293,94.573,41.96z" fill="#555555"/>
	</g>
</g>
<g>
	<g>
		<path d="M60.44,48.787l-6.827-6.827c-1.331-1.333-3.495-1.333-4.826,0c-1.333,1.333-1.333,3.494,0,4.826l6.827,6.827    c0.666,0.667,1.539,1,2.413,1c0.874,0,1.748-0.333,2.413-1C61.773,52.28,61.773,50.12,60.44,48.787z" fill="#555555"/>
	</g>
</g>
<g>
	<g>
		<path d="M48.613,58.127l-13.653-3.413c-1.826-0.463-3.681,0.655-4.139,2.483c-0.456,1.83,0.655,3.683,2.485,4.14l13.653,3.413    c0.276,0.07,0.555,0.102,0.829,0.102c1.529,0,2.922-1.034,3.309-2.586C51.553,60.438,50.442,58.585,48.613,58.127z" fill="#555555"/>
	</g>
</g>
<g>
	<g>
		<path d="M112.539,57.197c-0.457-1.828-2.314-2.944-4.139-2.483l-13.653,3.413c-1.83,0.457-2.942,2.311-2.485,4.14    c0.389,1.551,1.78,2.586,3.309,2.586c0.273,0,0.551-0.032,0.829-0.102l13.653-3.413C111.884,60.88,112.997,59.027,112.539,57.197z    " fill="#555555"/>
	</g>
</g>
<g>
	<g>
		<path d="M174.082,44.373c-1.884,0-3.413,1.529-3.413,3.413v115.7c0,3.958-3.222,7.18-7.182,7.18h-9.532    c-3.959,0-7.182-3.222-7.182-7.18V79.201c0-7.723-6.284-14.007-14.008-14.007h-6.472c-1.884,0-3.413,1.529-3.413,3.413    s1.529,3.413,3.413,3.413h6.47c3.959,0,7.182,3.222,7.182,7.18v84.285c0,7.723,6.284,14.007,14.008,14.007h9.532    c7.724,0,14.008-6.284,14.01-14.007v-115.7C177.495,45.903,175.966,44.373,174.082,44.373z" fill="#555555"/>
	</g>
</g>
<g>
	<g>
		<path d="M187.733,13.653h-27.307c-1.884,0-3.413,1.529-3.413,3.413v17.067c0,9.411,7.656,17.067,17.067,17.067    s17.067-7.656,17.067-17.067V17.067C191.147,15.183,189.618,13.653,187.733,13.653z M184.32,34.133    c0,5.647-4.593,10.24-10.24,10.24c-5.647,0-10.24-4.593-10.24-10.24V20.48h20.48V34.133z" fill="#555555"/>
	</g>
</g>
<g>
	<g>
		<path d="M167.253,0c-1.884,0-3.413,1.529-3.413,3.413v10.24c0,1.884,1.529,3.413,3.413,3.413s3.413-1.529,3.413-3.413V3.413    C170.667,1.529,169.137,0,167.253,0z" fill="#555555"/>
	</g>
</g>
<g>
	<g>
		<path d="M180.907,0c-1.884,0-3.413,1.529-3.413,3.413v10.24c0,1.884,1.529,3.413,3.413,3.413c1.884,0,3.413-1.529,3.413-3.413    V3.413C184.32,1.529,182.791,0,180.907,0z" fill="#555555"/>
	</g>
</g>
<g>
</g>
<g>
</g>
<g>
</g>
<g>
</g>
<g>
</g>
<g>
</g>
<g>
</g>
<g>
</g>
<g>
</g>
<g>
</g>
<g>
</g>
<g>
</g>
<g>
</g>
<g>
</g>
<g>
</g>
</svg>
