<?xml version="1.0" encoding="iso-8859-1"?>
<!-- Generator: Adobe Illustrator 22.0.0, SVG Export Plug-In . SVG Version: 6.00 Build 0)  -->
<svg version="1.1" id="Layer_1" xmlns="http://www.w3.org/2000/svg" xmlns:xlink="http://www.w3.org/1999/xlink" x="0px" y="0px"
	 viewBox="-49 141 512 512" style="enable-background:new -49 141 512 512;" xml:space="preserve">
<g>
	<polygon style="fill:none;" points="328.742,303.015 288.019,252.111 239.66,252.111 275.293,303.015 	"/>
	<path style="fill:none;" d="M-21.515,596.607v17.602c0,5.437,4.16,9.598,9.597,9.598h6.403c5.437,0,9.597-4.161,9.597-9.598v-16
		h-16C-15.117,598.209-18.316,597.568-21.515,596.607z"/>
	<path style="fill:none;" d="M208.883,592.127v22.398c0,12.481-9.922,22.403-22.398,22.403h-6.403
		c-12.48,0-22.398-9.922-22.398-22.403v-16H16.883v16c0,12.481-9.922,22.403-22.398,22.403h-6.403
		c-12.48,0-22.398-9.922-22.398-22.403v-22.398c0-0.641,0.32-1.281,0.32-1.602c-7.68-5.758-13.121-14.078-13.121-24v71.362h268.8
		v-71.328C221.672,577.108,216.555,586.371,208.883,592.127z"/>
	<path style="fill:none;" d="M-31.117,474.685c-0.32-0.957-0.32-1.597,0-2.558l14.719-66.559
		c3.203-14.722,16.32-25.281,31.359-25.281h66.261v-0.16H-47.117v122.398C-47.117,490.685-40.719,480.127-31.117,474.685z"/>
	<path style="fill:none;" d="M259.385,430.274h133.622v-19.089h-44.541c-3.818,0-6.363-2.545-6.363-6.363
		c0-3.818,2.545-6.363,6.363-6.363h44.541v-12.726h-25.452c-3.818,0-6.363-2.545-6.363-6.363s2.545-6.363,6.363-6.363h25.452
		v-31.815H259.385V430.274z"/>
	<path style="fill:none;" d="M0.883,524.607c-3.52,0-6.398,2.879-6.398,6.399c0,3.519,2.878,6.402,6.398,6.402
		c3.52,0,6.398-2.883,6.398-6.402C7.281,527.486,4.403,524.607,0.883,524.607z"/>
	<circle style="fill:none;" cx="-6.333" cy="230.6" r="8.533"/>
	<path style="fill:none;" d="M170.485,598.209v16c0,5.437,4.16,9.598,9.597,9.598h6.403c5.437,0,9.597-4.161,9.597-9.598v-16.641
		c-1.918,0.321-4.16,0.641-6.398,0.641H170.485z"/>
	<path style="fill:none;" d="M202.755,443h-6.672l6.403,28.807v0.96c11.191,5.118,19.187,16.306,19.198,29.415V443h-17.02H202.755z"
		/>
	<path style="fill:none;" d="M189.684,483.006H-15.117c-10.559,0-19.199,8.64-19.199,19.203v64c0,10.558,12.16,19.199,22.398,19.199
		h201.602c10.558,0,19.199-8.641,19.199-19.199v-64C208.883,491.646,200.242,483.006,189.684,483.006z M0.883,550.209
		c-10.559,0-19.199-8.641-19.199-19.203c0-10.559,8.64-19.199,19.199-19.199s19.199,8.64,19.199,19.199
		C20.082,541.568,11.442,550.209,0.883,550.209z M173.684,550.209c-10.563,0-19.199-8.641-19.199-19.203
		c0-10.559,8.636-19.199,19.199-19.199c10.558,0,19.199,8.64,19.199,19.199C192.883,541.568,184.242,550.209,173.684,550.209z"/>
	<path style="fill:none;" d="M173.684,524.607c-3.52,0-6.403,2.879-6.403,6.399c0,3.519,2.883,6.402,6.403,6.402
		c3.519,0,6.398-2.883,6.398-6.402C180.082,527.486,177.203,524.607,173.684,524.607z"/>
	<path style="fill:#555555;" d="M399.37,385.733h-6.363v12.726h6.363c3.818,0,6.363,2.545,6.363,6.363V379.37
		C405.733,383.188,403.188,385.733,399.37,385.733z"/>
	<path d="M403.962,330.197c0.023,0.023,0.045,0.048,0.068,0.071C404.007,330.245,403.985,330.22,403.962,330.197z"/>
	<path style="fill:#555555;" d="M396.189,329.103c0.473-0.284,0.961-0.489,1.453-0.636h-11.634H256.274l1.838,2.545
		c0.636,1.273,1.273,2.545,1.273,3.818v6.363h133.622h2.349l-1.713-3.181C391.735,334.83,393.007,331.012,396.189,329.103z"/>
	<rect x="81.222" y="380.127" width="12.726" height="0.16"/>
	<polygon points="241.57,308.106 256.204,328.467 256.274,328.467 	"/>
	<path style="fill:#555555;" d="M258.113,331.012l-1.838-2.545h-0.071h-3.182c-3.818,0-6.363,2.545-6.363,6.363v1.909v0.147
		l1.273,1.762c1.273,1.273,3.181,2.545,5.09,2.545h6.363v-6.363C259.385,333.557,258.749,332.284,258.113,331.012z"/>
	<path d="M403.962,330.197c-0.541-0.542-1.15-0.984-1.804-1.312l0.159,0.19C402.94,329.36,403.494,329.734,403.962,330.197z"/>
	<path d="M404.461,331.648c0.636,0.954,1.113,2.068,1.273,3.261v-0.08c0-1.881-0.62-3.45-1.703-4.561
		c-0.023-0.024-0.045-0.048-0.068-0.071c-0.468-0.463-1.023-0.837-1.645-1.122L404.461,331.648z"/>
	<path d="M397.642,328.467h1.728c1.099,0,2.089,0.217,2.946,0.609l-0.159-0.19C400.765,328.187,399.177,328.008,397.642,328.467z"/>
	<path d="M405.733,334.909v1.599C405.798,335.965,405.803,335.429,405.733,334.909z"/>
	<g>
		<path style="fill:#555555;" d="M437.548,436.637v-6.363h-6.363c-3.818,0-6.363,2.545-6.363,6.363c0,3.818,2.545,6.363,6.363,6.363
			h12.726C440.093,443,437.548,440.455,437.548,436.637z"/>
		<path style="fill:#555555;" d="M456.637,430.274h-6.363h-12.726v6.363c0,3.818,2.545,6.363,6.363,6.363h12.726
			c3.818,0,6.363-2.545,6.363-6.363C463,432.819,460.455,430.274,456.637,430.274z"/>
		<g>
			<path style="fill:none;" d="M405.733,334.909v1.599C405.798,335.965,405.803,335.429,405.733,334.909z"/>
			<g>
				<path style="fill:none;" d="M405.733,334.909v1.599C405.798,335.965,405.803,335.429,405.733,334.909z"/>
				<path style="fill:#555555;" d="M393.007,341.193v31.815h6.363c3.818,0,6.363,2.545,6.363,6.363v-18.907l-10.377-19.271H393.007z
					"/>
				<g>
					<path style="fill:none;" d="M405.733,334.909v1.599C405.798,335.965,405.803,335.429,405.733,334.909z"/>
					<path style="fill:#555555;" d="M443.911,411.185c-3.818,0-6.363,2.545-6.363,6.363v2v10.726h12.726v-10.976v-1.75
						C450.274,413.73,447.729,411.185,443.911,411.185z"/>
					<path style="fill:#555555;" d="M449.638,414.367l-44.541-82.719c-0.2-0.334-0.43-0.636-0.671-0.925
						c0.836,1.068,1.307,2.469,1.307,4.106v0.08c0.069,0.52,0.065,1.056,0,1.599v-1.599c-0.159-1.193-0.636-2.307-1.273-3.261
						l-2.144-2.573c-0.858-0.392-1.847-0.609-2.946-0.609h-1.728c-0.493,0.147-0.98,0.353-1.453,0.636
						c-3.181,1.909-4.454,5.727-2.545,8.908l1.713,3.181l10.377,19.271l31.815,59.085v-2c0-3.818,2.545-6.363,6.363-6.363
						s6.363,2.545,6.363,6.363v1.75C450.751,417.707,450.592,415.957,449.638,414.367z"/>
				</g>
			</g>
		</g>
		<path style="fill:none;stroke:#555555;stroke-width:0;stroke-linecap:round;stroke-linejoin:round;" d="M404.426,330.723
			c-0.124-0.159-0.256-0.311-0.396-0.455"/>
	</g>
	<path d="M205.766,442.919c-0.157,0.023-0.316,0.041-0.477,0.054C205.451,442.962,205.608,442.941,205.766,442.919z"/>
	<path d="M207.299,442.517c-0.455,0.178-0.944,0.313-1.461,0.393C206.374,442.832,206.88,442.705,207.299,442.517z"/>
	<path d="M205.838,442.91c-0.024,0.003-0.048,0.006-0.071,0.009C205.79,442.916,205.814,442.914,205.838,442.91z"/>
	<path d="M205.289,442.974c-0.207,0.015-0.416,0.026-0.625,0.026C204.875,443,205.084,442.99,205.289,442.974z"/>
	<polygon style="fill:#555555;" points="208.273,430.274 203.908,415.273 199.721,430.274 	"/>
	<path style="fill:#555555;" d="M-40.467,239.133c14.507,0,25.6,11.093,25.6,25.6c0,5.12,3.413,8.533,8.533,8.533
		s8.533-3.413,8.533-8.533c0-14.507,11.093-25.6,25.6-25.6c5.12,0,8.533-3.413,8.533-8.533s-3.413-8.533-8.533-8.533
		c-14.507,0-25.6-11.093-25.6-25.6c0-5.12-3.413-8.533-8.533-8.533s-8.533,3.413-8.533,8.533c0,14.507-11.093,25.6-25.6,25.6
		c-5.12,0-8.533,3.413-8.533,8.533S-45.587,239.133-40.467,239.133z M-6.333,222.067c2.56,3.413,5.12,5.973,8.533,8.533
		c-3.413,2.56-5.973,5.12-8.533,8.533c-2.56-3.413-5.12-5.973-8.533-8.533C-11.453,228.04-8.893,225.48-6.333,222.067z"/>
	<path style="fill:#555555;" d="M445.933,162.733c5.12,0,8.533-3.413,8.533-8.533s-3.413-8.533-8.533-8.533
		c-22.517,0-41.895,12.118-52.083,30.258c5.918,8.35,9.416,18.521,9.416,29.475C403.267,181.507,422.04,162.733,445.933,162.733z"/>
	<path style="fill:#555555;" d="M352.067,171.267c18.773,0,34.133,15.36,34.133,34.133c0-10.763,2.78-20.804,7.65-29.475
		c-9.295-13.115-24.578-21.725-41.784-21.725c-5.12,0-8.533,3.413-8.533,8.533S346.947,171.267,352.067,171.267z"/>
	<path style="fill:#555555;" d="M394.733,213.933c5.12,0,8.533-3.413,8.533-8.533c0-10.954-3.498-21.125-9.416-29.475
		c-4.87,8.671-7.65,18.712-7.65,29.475C386.2,210.52,389.613,213.933,394.733,213.933z"/>
	<path style="fill:#555555;" d="M361.193,379.37c0,3.818,2.545,6.363,6.363,6.363h25.452v-12.726h-25.452
		C363.738,373.007,361.193,375.553,361.193,379.37z"/>
	<path style="fill:#555555;" d="M399.37,373.007h-6.363v12.726h6.363c3.818,0,6.363-2.545,6.363-6.363
		S403.188,373.007,399.37,373.007z"/>
	<path style="fill:#555555;" d="M342.104,404.822c0,3.818,2.545,6.363,6.363,6.363h44.541v-12.726h-44.541
		C344.649,398.459,342.104,401.004,342.104,404.822z"/>
	<path style="fill:#555555;" d="M399.37,398.459h-6.363v12.726h6.363c3.818,0,6.363-2.545,6.363-6.363
		C405.733,401.004,403.188,398.459,399.37,398.459z"/>
	<path style="fill:#555555;" d="M202.485,472.767v-0.96L196.082,443h-13.422l6.063,27.209H-17.355l13.758-61.762
		c1.921-8.64,9.601-15.039,18.558-15.039h66.261v-13.121H14.961c-15.039,0-28.156,10.559-31.359,25.281l-14.719,66.559
		c-0.32,0.961-0.32,1.601,0,2.558c-9.602,5.442-16,16-16,27.84v64c0,9.922,5.441,18.242,13.121,24c0,0.321-0.32,0.961-0.32,1.602
		v22.398c0,12.481,9.918,22.403,22.398,22.403h6.403c12.476,0,22.398-9.922,22.398-22.403v-16h140.801v16
		c0,12.481,9.918,22.403,22.398,22.403h6.403c12.476,0,22.398-9.922,22.398-22.403v-22.398c7.672-5.756,12.789-15.019,12.8-25.568
		v-64.378C221.672,489.073,213.677,477.885,202.485,472.767z M4.082,614.209c0,5.437-4.16,9.598-9.597,9.598h-6.403
		c-5.437,0-9.597-4.161-9.597-9.598v-17.602c3.199,0.961,6.398,1.602,9.597,1.602h16V614.209z M196.082,614.209
		c0,5.437-4.16,9.598-9.597,9.598h-6.403c-5.437,0-9.597-4.161-9.597-9.598v-16h19.199c2.238,0,4.48-0.32,6.398-0.641V614.209z
		 M208.883,566.209c0,10.558-8.641,19.199-19.199,19.199H-11.918c-10.238,0-22.398-8.641-22.398-19.199v-64
		c0-10.563,8.64-19.203,19.199-19.203h204.801c10.558,0,19.199,8.64,19.199,19.203V566.209z"/>
	<rect x="81.222" y="380.287" style="fill:#555555;" width="12.726" height="13.121"/>
	<g>
		<path style="fill:#555555;" d="M198.301,435.364l1.421-5.09h-3.33h-3.138L196.082,443h6.672
			C199.573,442.364,197.664,438.546,198.301,435.364z"/>
		<polygon style="fill:#555555;" points="179.825,430.274 182.661,443 196.082,443 193.254,430.274 		"/>
	</g>
	<g>
		<path style="fill:none;" d="M143.561,380.127l13.486-46.344l-23.013,18.863c-6.226,6.848-9.394,19.774-8.336,27.481
			c0.007,0.053,0.012,0.108,0.02,0.16h17.796L143.561,380.127z"/>
		<path style="fill:none;" d="M213.682,380.127c2.313-10.029-0.886-20.6-9.019-27.481l-24.802-20.001l13.818,47.482l10.228,35.147
			l9.664-34.631C213.615,380.471,213.643,380.299,213.682,380.127z"/>
		<polygon style="fill:none;" points="239.66,252.111 275.293,303.015 328.742,303.015 288.019,252.111 		"/>
		<path style="fill:#555555;" d="M309.016,217.115c-1.273-1.909-3.181-2.545-5.09-2.545H172.944
			c-1.083-0.45-2.267-0.636-3.277-0.636c-1.909,0-3.818,1.273-5.09,3.181L81.859,357.1c-0.636,0.636-0.636,1.909-0.636,3.182v19.845
			h12.726V362.19l76.896-130.279l75.815,104.974v-0.147v-1.909c0-3.818,2.545-6.363,6.363-6.363h3.182l-14.634-20.361l-58.54-81.447
			h117.715l85.264,101.807h11.634c1.535-0.459,3.123-0.28,4.516,0.419L309.016,217.115z"/>
		<path style="fill:#555555;" d="M296.29,242.567c-1.273-1.909-3.182-2.545-5.09-2.545h-63.63c-2.545,0-4.454,1.273-5.727,3.181
			c-0.636,1.909-0.636,4.454,0.636,6.363l44.541,63.63c1.273,1.273,3.182,2.545,5.09,2.545h69.993c2.545,0,4.454-1.273,5.727-2.545
			c1.273-2.545,0.636-5.09-0.636-6.999L296.29,242.567z M275.293,303.015l-35.633-50.904h48.359l40.723,50.904H275.293z"/>
		<g>
			<path style="fill:none;" d="M213.682,380.127c2.313-10.029-0.886-20.6-9.019-27.481l-24.802-20.001l13.818,47.482l10.228,35.147
				l9.664-34.631C213.615,380.471,213.643,380.299,213.682,380.127z"/>
			<path style="fill:none;" d="M207.299,442.517c-0.455,0.178-0.944,0.313-1.461,0.393
				C206.374,442.832,206.88,442.705,207.299,442.517z"/>
			<polygon style="fill:none;" points="203.908,415.273 199.721,430.274 208.273,430.274 			"/>
			<g>
				<path style="fill:#555555;" d="M207.299,442.517c-0.455,0.178-0.944,0.313-1.461,0.393
					C206.374,442.832,206.88,442.705,207.299,442.517z"/>
				<path style="fill:#555555;" d="M399.37,411.185h-6.363v19.089H259.385v-89.081h-6.363c-1.909,0-3.818-1.273-5.09-2.545
					l-1.273-1.762v93.389h-24.976h-8.985l-2.308,8.272c0,1.782-1.251,3.25-3.091,3.971c-0.419,0.188-0.924,0.315-1.461,0.393
					c0.517-0.08,1.006-0.215,1.461-0.393c0.71-0.318,1.183-0.793,1.183-1.426c1.273-1.909,1.909-3.818,1.273-5.727l-1.481-5.09
					h-8.551l-1.421,5.09c-0.636,3.181,1.273,6.999,4.454,7.636h1.909h17.02h31.339H399.37c3.818,0,6.363-2.545,6.363-6.363v-31.815
					C405.733,408.64,403.188,411.185,399.37,411.185z"/>
				<path style="fill:#555555;" d="M208.482,441.091c0,0.633-0.473,1.108-1.183,1.426c1.841-0.721,3.091-2.189,3.091-3.971
					l2.308-8.272h-4.426l1.481,5.09C210.39,437.273,209.754,439.182,208.482,441.091z"/>
			</g>
			<path style="fill:#555555;" d="M193.68,380.127l-13.818-47.482l24.802,20.001c8.133,6.881,11.332,17.452,9.019,27.481
				c-0.04,0.172-0.068,0.345-0.111,0.516l-9.664,34.631l4.365,15.001h4.426l8.985-32.195l3.978-14.255
				c3.818-15.271-1.273-31.179-13.362-41.359l-39.45-31.815c-1.631-1.223-4.043-1.397-6.069-0.697
				c-0.015,0.005-0.03,0.011-0.045,0.017c-0.154,0.051-0.304,0.11-0.454,0.174c-0.102,0.044-0.2,0.093-0.298,0.142
				c-0.109,0.055-0.219,0.107-0.325,0.169c-0.029,0.016-0.056,0.034-0.085,0.051c-0.491,0.286-0.935,0.632-1.31,1.038l-38.5,31.557
				c-10.332,10.332-14.432,25.314-13.271,37.026c0.005,0.053,0.011,0.107,0.017,0.16h13.21c-0.008-0.052-0.013-0.107-0.02-0.16
				c-1.058-7.707,2.11-20.633,8.336-27.481l23.013-18.863l-13.486,46.344l-0.047,0.16h12.889c0.372,0,0.742,0.012,1.112,0.024
				l0.054-0.184l12.098-41.48l12.098,41.48l14.626,50.147h3.33l4.186-15.001L193.68,380.127z"/>
		</g>
		<path style="fill:#555555;" d="M143.515,380.287h-17.796h-13.21H93.948v13.121H115.6h13.617h10.479h13.999h2.708
			c8.96,0,16.96,6.399,18.558,15.039l4.864,21.827h13.429l-5.491-24.706c-3.12-14.358-15.678-24.751-30.247-25.257
			c-0.37-0.013-0.74-0.024-1.112-0.024H143.515z"/>
	</g>
	<path style="fill:#555555;" d="M0.883,511.807c-10.559,0-19.199,8.64-19.199,19.199c0,10.562,8.64,19.203,19.199,19.203
		s19.199-8.641,19.199-19.203C20.082,520.447,11.442,511.807,0.883,511.807z M0.883,537.408c-3.52,0-6.398-2.883-6.398-6.402
		c0-3.52,2.878-6.399,6.398-6.399c3.52,0,6.398,2.879,6.398,6.399C7.281,534.525,4.403,537.408,0.883,537.408z"/>
	<path style="fill:#555555;" d="M173.684,511.807c-10.563,0-19.199,8.64-19.199,19.199c0,10.562,8.636,19.203,19.199,19.203
		c10.558,0,19.199-8.641,19.199-19.203C192.883,520.447,184.242,511.807,173.684,511.807z M173.684,537.408
		c-3.52,0-6.403-2.883-6.403-6.402c0-3.52,2.883-6.399,6.403-6.399c3.519,0,6.398,2.879,6.398,6.399
		C180.082,534.525,177.203,537.408,173.684,537.408z"/>
</g>
</svg>
